<svg xmlns="http://www.w3.org/2000/svg" viewBox="0 0 900 600">
  <defs>
    <clipPath id="wave">
      <path d="M0,100 C150,0 300,200 450,100 C600,0 750,200 900,100 L900,500 C750,600 600,400 450,500 C300,600 150,400 0,500 Z"/>
    </clipPath>
  </defs>
  <g clip-path="url(#wave)">
    <rect width="900" height="200" fill="#3E9A00"/>
    <rect y="200" width="900" height="200" fill="#FFFFFF"/>
    <rect y="400" width="900" height="200" fill="#E32118"/>
    <polygon points="0,0 280,300 0,600" fill="#0073CE"/>
    <rect x="390" y="220" width="120" height="90" rx="10" ry="10" fill="#0073CE"/>
    <rect x="440" y="195" width="20" height="90" fill="#5D4037"/>
    <ellipse cx="450" cy="195" rx="35" ry="28" fill="#2E7D32"/>
    <circle cx="340" cy="80" r="14" fill="#FFD700"/>
    <circle cx="396" cy="52" r="14" fill="#FFD700"/>
    <circle cx="456" cy="44" r="14" fill="#FFD700"/>
    <circle cx="516" cy="52" r="14" fill="#FFD700"/>
    <circle cx="572" cy="80" r="14" fill="#FFD700"/>
    <circle cx="456" cy="110" r="14" fill="#FFD700"/>
  </g>
</svg>
