<svg xmlns="http://www.w3.org/2000/svg" viewBox="0 0 900 600">
  <defs>
    <clipPath id="wave">
      <path d="M0,100 C150,0 300,200 450,100 C600,0 750,200 900,100 L900,500 C750,600 600,400 450,500 C300,600 150,400 0,500 Z"/>
    </clipPath>
  </defs>
  <g clip-path="url(#wave)">
    <rect width="900" height="150" fill="#003082"/>
    <rect y="150" width="900" height="150" fill="#FFFFFF"/>
    <rect y="300" width="900" height="150" fill="#289728"/>
    <rect y="450" width="900" height="150" fill="#FFCB00"/>
    <rect x="375" width="150" height="600" fill="#BC0026"/>
    <polygon points="112,30 121,58 151,58 128,75 137,103 112,86 87,103 96,75 73,58 103,58" fill="#FFCB00"/>
  </g>
</svg>
